<svg width="62" height="24" viewBox="0 0 62 24" fill="none" xmlns="http://www.w3.org/2000/svg">
<path d="M28.7427 11.673V18.7491H26.4819V1.27539H32.4754C33.9944 1.27539 35.2897 1.77832 36.3494 2.78416C37.4327 3.79001 37.9744 5.01808 37.9744 6.46837C37.9744 7.95375 37.4327 9.18182 36.3494 10.176C35.3015 11.1701 34.0062 11.6613 32.4754 11.6613H28.7427V11.673ZM28.7427 3.42744V9.521H32.5225C33.4174 9.521 34.1711 9.2169 34.7598 8.62041C35.3603 8.02392 35.6665 7.29878 35.6665 6.48006C35.6665 5.67305 35.3603 4.9596 34.7598 4.36311C34.1711 3.74323 33.4292 3.43913 32.5225 3.43913H28.7427V3.42744Z" fill="#5F6368"/>
<path d="M43.8855 6.39844C45.5575 6.39844 46.8764 6.84288 47.8419 7.73177C48.8075 8.62066 49.2902 9.83703 49.2902 11.3809V18.7493H47.1354V17.0885H47.0412C46.111 18.4569 44.8628 19.1353 43.3085 19.1353C41.9779 19.1353 40.8711 18.7493 39.9762 17.9657C39.0812 17.1821 38.6338 16.2113 38.6338 15.0417C38.6338 13.8019 39.1048 12.8195 40.0468 12.0943C40.9888 11.3575 42.2487 10.9949 43.8148 10.9949C45.1572 10.9949 46.2641 11.2405 47.1236 11.7318V11.2171C47.1236 10.4335 46.8175 9.77855 46.1934 9.22884C45.5693 8.67914 44.8393 8.41013 44.0032 8.41013C42.7433 8.41013 41.7424 8.93645 41.0124 10.0008L39.0224 8.76101C40.1174 7.18206 41.7424 6.39844 43.8855 6.39844ZM40.9653 15.0768C40.9653 15.6616 41.2125 16.1528 41.7189 16.5388C42.2134 16.9247 42.8022 17.1236 43.4734 17.1236C44.4271 17.1236 45.2749 16.7727 46.0168 16.0709C46.7586 15.3692 47.1354 14.5505 47.1354 13.6031C46.4289 13.0534 45.4516 12.7727 44.1916 12.7727C43.2732 12.7727 42.5078 12.9949 41.8955 13.4277C41.2714 13.8838 40.9653 14.4335 40.9653 15.0768Z" fill="#5F6368"/>
<path d="M61.5834 6.7832L54.0474 23.9996H51.7159L54.5184 17.9762L49.5493 6.7832H52.0103L55.5899 15.368H55.637L59.1224 6.7832H61.5834Z" fill="#5F6368"/>
<path d="M19.7504 10.2451C19.7504 9.51294 19.6845 8.81236 19.562 8.13867H10.0854V11.9983L15.5432 11.9995C15.3218 13.2837 14.6094 14.3784 13.5179 15.1083V17.6123H16.7666C18.6636 15.8685 19.7504 13.2907 19.7504 10.2451Z" fill="#4285F4"/>
<path d="M13.519 15.109C12.6147 15.7149 11.4501 16.0693 10.0877 16.0693C7.45602 16.0693 5.22347 14.3079 4.42394 11.9336H1.07275V14.5161C2.73304 17.7886 6.14545 20.0342 10.0877 20.0342C12.8125 20.0342 15.1016 19.1441 16.7677 17.612L13.519 15.109Z" fill="#34A853"/>
<path d="M4.10832 10.017C4.10832 9.35032 4.22018 8.70588 4.42389 8.10003V5.51758H1.07271C0.386221 6.87079 0 8.39828 0 10.017C0 11.6357 0.387398 13.1632 1.07271 14.5164L4.42389 11.9339C4.22018 11.3281 4.10832 10.6837 4.10832 10.017Z" fill="#FABB05"/>
<path d="M10.0877 3.96491C11.5749 3.96491 12.9067 4.47368 13.9582 5.46783L16.8372 2.61052C15.0886 0.992982 12.809 0 10.0877 0C6.14663 0 2.73304 2.24561 1.07275 5.51812L4.42394 8.10058C5.22347 5.72631 7.45602 3.96491 10.0877 3.96491Z" fill="#E94235"/>
</svg>
