<svg viewBox="0 0 20 20" fill="none" xmlns="http://www.w3.org/2000/svg">
<path fill-rule="evenodd" clip-rule="evenodd" d="M5.31674 6.64858C6.32054 7.57211 6.87502 8.76477 6.87502 10.0004C6.87502 11.236 6.32054 12.4287 5.31674 13.3522C5.04027 13.6066 4.56398 13.6295 4.25293 13.4034C3.94188 13.1773 3.91385 12.7878 4.19033 12.5334C4.94893 11.8355 5.36796 10.9342 5.36796 10.0004C5.36796 9.0666 4.94893 8.16528 4.19033 7.46735C3.91385 7.21298 3.94188 6.82349 4.25293 6.59739C4.56398 6.3713 5.04027 6.39422 5.31674 6.64858Z" fill="currentColor"/>
<path fill-rule="evenodd" clip-rule="evenodd" d="M8.17912 4.28508C9.95147 5.8351 10.9374 7.87791 10.9374 10C10.9374 12.1221 9.95147 14.1649 8.17912 15.7149C7.89488 15.9635 7.41804 15.9766 7.11406 15.7441C6.81009 15.5117 6.79409 15.1218 7.07833 14.8732C8.58964 13.5515 9.43039 11.8095 9.43039 10C9.43039 8.19047 8.58964 6.44854 7.07833 5.12683C6.79409 4.87825 6.81009 4.4883 7.11406 4.25586C7.41804 4.02342 7.89488 4.0365 8.17912 4.28508Z" fill="currentColor"/>
<path fill-rule="evenodd" clip-rule="evenodd" d="M11.3667 2.20601C13.7068 4.35115 15 7.12534 15 10C15 12.8747 13.7068 15.6489 11.3667 17.794C11.0896 18.048 10.6133 18.0702 10.3028 17.8436C9.99221 17.6171 9.96504 17.2275 10.2421 16.9736C12.3358 15.0542 13.4929 12.5721 13.4929 10C13.4929 7.42794 12.3358 4.94577 10.2421 3.02643C9.96504 2.77247 9.99221 2.38294 10.3028 2.15639C10.6133 1.92983 11.0896 1.95205 11.3667 2.20601Z" fill="currentColor"/>
</svg>
