<svg viewBox="0 0 16 16" fill="none" xmlns="http://www.w3.org/2000/svg">
<path fill-rule="evenodd" clip-rule="evenodd" d="M7.79435 1.04432C7.92519 0.985228 8.07511 0.985228 8.20594 1.04432C10.6918 2.16698 11.8077 2.52567 14.5603 3.01942C14.787 3.06007 14.9565 3.25027 14.971 3.48008C15.4995 11.8555 8.70251 14.7562 8.18693 14.9638C8.06708 15.0121 7.93321 15.0121 7.81336 14.9638C7.29778 14.7562 0.500825 11.8555 1.02926 3.48008C1.04376 3.25027 1.21334 3.06007 1.43999 3.01942C4.19256 2.52567 5.30848 2.16698 7.79435 1.04432ZM2.00824 3.93227C1.77248 10.7539 6.88583 13.4503 8.00015 13.9556C9.11446 13.4503 14.2278 10.7539 13.9921 3.93227C11.5046 3.4705 10.3015 3.07943 8.00015 2.04827C5.69883 3.07943 4.49569 3.4705 2.00824 3.93227Z" fill="currentColor"/>
</svg>
