<svg viewBox="0 0 34 34" fill="none" xmlns="http://www.w3.org/2000/svg">
<path d="M7.23828 26.7617C6.01641 25.5398 6.82656 22.9766 6.20234 21.4758C5.57813 19.975 3.1875 18.6602 3.1875 17C3.1875 15.3398 5.55156 14.0781 6.20234 12.5242C6.85313 10.9703 6.01641 8.46016 7.23828 7.23828C8.46016 6.01641 11.0234 6.82656 12.5242 6.20234C14.025 5.57813 15.3398 3.1875 17 3.1875C18.6602 3.1875 19.9219 5.55156 21.4758 6.20234C23.0297 6.85313 25.5398 6.01641 26.7617 7.23828C27.9836 8.46016 27.1734 11.0234 27.7977 12.5242C28.4219 14.025 30.8125 15.3398 30.8125 17C30.8125 18.6602 28.4484 19.9219 27.7977 21.4758C27.1469 23.0297 27.9836 25.5398 26.7617 26.7617C25.5398 27.9836 22.9766 27.1734 21.4758 27.7977C19.975 28.4219 18.6602 30.8125 17 30.8125C15.3398 30.8125 14.0781 28.4484 12.5242 27.7977C10.9703 27.1469 8.46016 27.9836 7.23828 26.7617Z" stroke="currentColor" stroke-width="2" stroke-linecap="round" stroke-linejoin="round"/>
<path d="M22.8438 13.8125L15.0477 21.25L11.1562 17.5312" stroke="currentColor" stroke-width="2" stroke-linecap="round" stroke-linejoin="round"/>
</svg>
