<svg viewBox="0 0 98 30" fill="none" xmlns="http://www.w3.org/2000/svg">
<path d="M18.3223 0.447345C18.3097 0.443554 18.2958 0.439763 18.2819 0.437236C17.0913 0.141533 15.8994 0 14.7265 0H14.7214C8.11053 0.00252737 2.09936 4.48988 0.436539 11.2001C-1.52173 19.1044 3.29251 27.1023 11.19 29.0623C12.3806 29.358 13.5737 29.4995 14.7479 29.4995C21.3601 29.4995 27.3738 25.0122 29.0366 18.2995C30.9911 10.4103 26.1996 2.42628 18.3223 0.447345ZM27.8801 18.0126C26.3776 24.0732 20.9775 28.3066 14.7479 28.3066C13.652 28.3066 12.551 28.1714 11.4766 27.9047C7.96533 27.0341 5.00457 24.8466 3.13721 21.7455C1.26985 18.6444 0.721883 15.0012 1.59307 11.4869C3.09428 5.42754 8.50067 1.19545 14.729 1.19292C15.8237 1.19292 16.9221 1.32814 18.0054 1.5973L18.0193 1.60109L18.0332 1.60488C25.2552 3.41827 29.6717 10.7792 27.8801 18.0126Z" fill="white"/>
<path d="M17.8072 12.7752C17.3843 14.4698 14.8035 13.6004 13.9652 13.3931L14.705 10.4285C15.5295 10.632 18.2302 11.0212 17.7933 12.7739H17.8072V12.7752ZM17.3464 17.5658C16.8893 19.4121 13.7834 18.4125 12.7771 18.1623L13.594 14.8893C14.6003 15.1433 17.8249 15.6387 17.3464 17.5658ZM20.7314 12.8017C20.9978 10.9972 19.6266 10.0279 17.7693 9.38472L18.3792 6.94075L16.8767 6.56796L16.2845 8.94748C15.8957 8.85018 15.4929 8.75667 15.0952 8.66821L15.6873 6.26341L14.2025 5.89062L13.5927 8.3346L12.6445 8.12356L10.5928 7.6105L10.1989 9.19896C10.1989 9.19896 11.2241 9.44917 11.2784 9.46939C11.6105 9.53636 12.0044 9.89399 11.9728 10.3161L10.3049 17.0073C10.214 17.2929 9.90975 17.4496 9.62441 17.3586C9.59284 17.3497 8.54111 17.0919 8.54111 17.0919L7.80502 18.7866L9.73804 19.2655L10.7961 19.541L10.1825 22.0102L11.6673 22.383L12.2771 19.939C12.6773 20.049 13.0713 20.1501 13.4576 20.2436L12.8566 22.6951L14.3414 23.0629L14.955 20.5987C17.4941 21.0776 19.393 20.8868 20.1973 18.5919C20.845 16.7457 20.1632 15.6829 18.8312 14.9879C19.8046 14.763 20.5243 14.14 20.7314 12.8017Z" fill="white"/>
<path d="M42.6019 10.2705C43.5236 10.2705 44.3203 10.4335 44.992 10.7608C45.6637 11.0881 46.2205 11.5291 46.6624 12.0864C47.1043 12.6437 47.43 13.297 47.6421 14.0464C47.853 14.7957 47.9591 15.6032 47.9591 16.4676C47.9591 17.7932 47.7141 19.0481 47.2242 20.2296C46.7343 21.4111 46.0677 22.4398 45.223 23.3143C44.3784 24.1887 43.3797 24.8812 42.2269 25.3892C41.0754 25.8985 39.8267 26.1538 38.4821 26.1538C38.3091 26.1538 38.0074 26.1487 37.5743 26.1399C37.1425 26.1298 36.6476 26.0868 36.0908 26.0097C35.534 25.9326 34.9431 25.8176 34.3193 25.6635C33.6956 25.5105 33.1047 25.2982 32.5479 25.0291L37.5301 4.0721L41.9946 3.38086L40.208 10.8189C40.5919 10.6458 40.9757 10.5118 41.3608 10.4158C41.7471 10.3198 42.16 10.2705 42.6019 10.2705ZM38.8583 22.6091C39.53 22.6091 40.1639 22.4461 40.7598 22.1188C41.3545 21.7928 41.8683 21.3555 42.3001 20.8071C42.732 20.2599 43.0728 19.6395 43.3228 18.9482C43.5728 18.2557 43.6978 17.5354 43.6978 16.7861C43.6978 15.8636 43.5438 15.1433 43.237 14.6239C42.9302 14.1058 42.3633 13.8455 41.5375 13.8455C41.2686 13.8455 40.9189 13.8935 40.4858 13.9895C40.054 14.0856 39.6651 14.2877 39.3192 14.5948L37.4177 22.4941C37.5326 22.5131 37.6336 22.532 37.7195 22.5523C37.8053 22.5712 37.8963 22.5864 37.9935 22.5952C38.0894 22.6053 38.2043 22.6091 38.3394 22.6091C38.4733 22.6091 38.6462 22.6091 38.8583 22.6091Z" fill="white"/>
<path d="M54.8134 26.0388C53.4498 26.0388 52.3792 25.8606 51.6027 25.5055C50.8249 25.1504 50.2681 24.6651 49.9323 24.0497C49.5964 23.4343 49.4323 22.7292 49.4424 21.9305C49.4525 21.1331 49.5623 20.2827 49.7732 19.3791L53.4309 4.0721L57.8954 3.38086L53.8917 19.9844C53.8147 20.3307 53.7718 20.6479 53.7617 20.936C53.7516 21.2241 53.8046 21.4794 53.9208 21.6993C54.0357 21.9204 54.2326 22.0986 54.5117 22.2325C54.7894 22.3665 55.1783 22.4537 55.6783 22.4916L54.8134 26.0388Z" fill="white"/>
<path d="M61.2942 25.7509H57.0317L60.6314 10.5879H64.9229L61.2942 25.7509Z" fill="white"/>
<path d="M68.0909 11.2797C68.4167 11.1836 68.7778 11.0737 69.1704 10.9486C69.5644 10.8235 70.0063 10.7085 70.4949 10.6023C70.9848 10.4975 71.5315 10.4103 72.1375 10.3433C72.7423 10.2763 73.4291 10.2422 74.1968 10.2422C76.4619 10.2422 78.0174 10.8955 78.8633 12.2022C79.708 13.5088 79.8519 15.2969 79.2951 17.564L77.3368 25.7514H73.0453L74.9468 17.7371C75.0617 17.238 75.1526 16.7527 75.2207 16.2813C75.2877 15.81 75.2826 15.3968 75.2069 15.0417C75.1298 14.6866 74.9518 14.3985 74.674 14.1773C74.395 13.9562 73.9683 13.8462 73.3925 13.8462C72.8357 13.8462 72.2688 13.9044 71.6931 14.0193L68.899 25.7514H64.6062L68.0909 11.2797Z" fill="white"/>
<path d="M86.3795 16.0659C87.531 15.1434 88.6155 14.2019 89.6344 13.2403C90.6521 12.2799 91.5258 11.3953 92.2556 10.5878H97.0938C96.0181 11.7794 94.8994 12.9471 93.7378 14.0907C92.5763 15.2344 91.2468 16.45 89.7481 17.7377C90.1508 18.2381 90.5587 18.8144 90.9728 19.4677C91.3857 20.121 91.7796 20.8034 92.1533 21.5149C92.5283 22.2263 92.873 22.9466 93.1899 23.677C93.5068 24.4075 93.7707 25.1 93.9815 25.7533H89.2001C89.0271 25.2541 88.8112 24.7057 88.5524 24.1105C88.2936 23.5153 88.0057 22.9239 87.6888 22.3375C87.3719 21.7512 87.0411 21.18 86.6951 20.6227C86.3492 20.0654 86.0045 19.5663 85.6586 19.124L84.0462 25.7546H79.7838L84.9679 4.076L89.4324 3.38477L86.3795 16.0659Z" fill="white"/>
<path d="M66.4341 6.00931C66.4341 6.40863 66.3584 6.78016 66.2056 7.12641C66.0541 7.47266 65.8458 7.77468 65.5844 8.03121C65.3218 8.28774 65.015 8.49246 64.664 8.64536C64.313 8.797 63.938 8.87409 63.5403 8.87409C63.1413 8.87409 62.7676 8.79827 62.4166 8.64536C62.0656 8.49372 61.7613 8.289 61.505 8.03121C61.2487 7.77468 61.0442 7.47266 60.8914 7.12641C60.7399 6.78016 60.6629 6.40863 60.6629 6.00931C60.6629 5.62136 60.7386 5.2511 60.8914 4.89979C61.0429 4.54849 61.2475 4.24394 61.505 3.98741C61.7613 3.73088 62.0656 3.52616 62.4166 3.37326C62.7676 3.22162 63.1426 3.14453 63.5403 3.14453C63.938 3.14453 64.313 3.22035 64.664 3.37326C65.015 3.52616 65.3218 3.72962 65.5844 3.98741C65.8458 4.24394 66.0528 4.54849 66.2056 4.89979C66.3584 5.2511 66.4341 5.62009 66.4341 6.00931Z" fill="white"/>
</svg>
