<svg width="24" height="24" viewBox="0 0 23 20" fill="none" xmlns="http://www.w3.org/2000/svg">
<path d="M0.75 14.828C0.75 15.048 0.837 15.258 0.993 15.414C1.148 15.569 1.358 15.656 1.578 15.656H8.203C9.082 15.656 9.924 16.005 10.545 16.627C11.167 17.248 11.516 18.09 11.516 18.969V4.063C11.516 3.184 11.167 2.341 10.545 1.72C9.924 1.099 9.082 0.75 8.203 0.75H1.578C1.358 0.75 1.148 0.837 0.993 0.993C0.837 1.148 0.75 1.358 0.75 1.578V14.828Z" stroke="currentColor" stroke-width="1.5" stroke-linecap="round" stroke-linejoin="round"/>
<path d="M11.5 4.063C11.5 3.184 11.849 2.341 12.47 1.72C13.091 1.099 13.934 0.75 14.813 0.75H21.438C21.657 0.75 21.868 0.837 22.023 0.993C22.178 1.148 22.266 1.358 22.266 1.578V14.828C22.266 15.048 22.178 15.258 22.023 15.414C21.868 15.569 21.657 15.656 21.438 15.656H14.813C13.934 15.656 13.091 16.005 12.47 16.627C11.849 17.248 11.5 18.09 11.5 18.969" stroke="currentColor" stroke-width="1.5" stroke-linecap="round" stroke-linejoin="round"/>
</svg>
