<svg viewBox="0 0 20 20" fill="none" xmlns="http://www.w3.org/2000/svg">
<path fill-rule="evenodd" clip-rule="evenodd" d="M5 1.25C5.34518 1.25 5.625 1.52982 5.625 1.875V2.5H14.375V1.875C14.375 1.52982 14.6548 1.25 15 1.25C15.3452 1.25 15.625 1.52982 15.625 1.875V2.5H16.25C17.6307 2.5 18.75 3.61929 18.75 5V16.25C18.75 17.6307 17.6307 18.75 16.25 18.75H3.75C2.36929 18.75 1.25 17.6307 1.25 16.25V5C1.25 3.61929 2.36929 2.5 3.75 2.5H4.375V1.875C4.375 1.52982 4.65482 1.25 5 1.25ZM3.75 3.75C3.05964 3.75 2.5 4.30964 2.5 5V5.625H17.5V5C17.5 4.30964 16.9404 3.75 16.25 3.75H3.75ZM17.5 6.875H2.5V16.25C2.5 16.9404 3.05964 17.5 3.75 17.5H16.25C16.9404 17.5 17.5 16.9404 17.5 16.25V6.875ZM5.47691 9.17125C5.74336 8.72082 6.40822 8.125 7.49336 8.125C8.09249 8.125 8.70217 8.28705 9.17801 8.64947C9.67011 9.02427 9.98802 9.59352 9.98906 10.3051C9.99175 10.5848 9.93868 10.8622 9.83294 11.1212C9.72727 11.38 9.5711 11.6152 9.37357 11.813C9.32952 11.858 9.28394 11.9007 9.23712 11.9412C9.35178 12.0247 9.46173 12.1182 9.56404 12.2228C10.0181 12.6854 10.1953 13.305 10.1953 13.9133C10.1953 14.6531 9.87478 15.2602 9.35857 15.668C8.85665 16.0645 8.2022 16.25 7.53438 16.25C6.2679 16.25 5.52181 15.3396 5.28204 14.9333C5.10662 14.636 5.20541 14.2528 5.50269 14.0774C5.79997 13.9019 6.18317 14.0007 6.35859 14.298C6.50006 14.5378 6.91257 15 7.53438 15C7.98335 15 8.34687 14.8742 8.58372 14.6871C8.80628 14.5113 8.94531 14.2625 8.94531 13.9133C8.94531 13.5356 8.83664 13.2662 8.6719 13.0983L8.67111 13.0975C8.33254 12.7513 7.77147 12.6027 7.49492 12.6027C7.14974 12.6027 6.86992 12.3229 6.86992 11.9777C6.86992 11.6326 7.14974 11.3527 7.49492 11.3527C7.58932 11.3527 7.76776 11.3276 7.96865 11.2533C8.16698 11.18 8.34951 11.0726 8.48219 10.9367C8.48407 10.9348 8.48597 10.9329 8.48788 10.931C8.56869 10.8504 8.63254 10.7544 8.67569 10.6487C8.71883 10.543 8.74039 10.4298 8.7391 10.3157C8.73908 10.3133 8.73906 10.311 8.73906 10.3086C8.73906 10.0015 8.616 9.79269 8.42062 9.64389C8.20818 9.48209 7.88251 9.375 7.49336 9.375C6.90662 9.375 6.62461 9.68622 6.55278 9.80766C6.37704 10.1047 5.99373 10.2031 5.69664 10.0274C5.39955 9.85165 5.30117 9.46834 5.47691 9.17125ZM13.2003 8.40312C13.3077 8.32396 13.4377 8.28125 13.5711 8.28125H13.75C14.0952 8.28125 14.375 8.56107 14.375 8.90625V15.4688C14.375 15.8139 14.0952 16.0938 13.75 16.0938C13.4048 16.0938 13.125 15.8139 13.125 15.4688V10.0114L12.2458 10.6594C11.9679 10.8642 11.5767 10.8049 11.3719 10.527C11.1671 10.2492 11.2263 9.85791 11.5042 9.65312L13.2003 8.40312Z" fill="black"/>
</svg>
