<svg viewBox="0 0 34 34" fill="none" xmlns="http://www.w3.org/2000/svg">
<path d="M33.1962 15.6067L31.4346 13.1611C31.0403 12.6073 30.5197 12.1555 29.9159 11.8432C29.3121 11.5309 28.6426 11.3671 27.9628 11.3653H20.4718V7.70534C20.4718 6.57137 20.0214 5.48384 19.2195 4.682C18.4177 3.88016 17.3301 3.42969 16.1962 3.42969H4.27565C3.14265 3.43285 2.05696 3.88433 1.2558 4.68549C0.454643 5.48664 0.00315916 6.57234 0 7.70534V24.7053C0 25.3857 0.270282 26.0382 0.751386 26.5193C1.23249 27.0004 1.88501 27.2707 2.56539 27.2707H4.65191C4.78105 28.1858 5.23632 29.0234 5.93393 29.6295C6.63155 30.2355 7.52458 30.5693 8.44869 30.5693C9.37281 30.5693 10.2658 30.2355 10.9635 29.6295C11.6611 29.0234 12.1163 28.1858 12.2455 27.2707H21.7545C21.8837 28.1858 22.3389 29.0234 23.0365 29.6295C23.7342 30.2355 24.6272 30.5693 25.5513 30.5693C26.4754 30.5693 27.3685 30.2355 28.0661 29.6295C28.7637 29.0234 29.2189 28.1858 29.3481 27.2707H31.4346C32.115 27.2707 32.7675 27.0004 33.2486 26.5193C33.7297 26.0382 34 25.3857 34 24.7053V18.0866C33.9958 17.1966 33.7149 16.33 33.1962 15.6067ZM8.44869 28.8613C8.02587 28.8613 7.61254 28.7359 7.26098 28.501C6.90941 28.2661 6.6354 27.9322 6.4736 27.5416C6.31179 27.1509 6.26945 26.7211 6.35194 26.3064C6.43443 25.8917 6.63804 25.5108 6.93702 25.2118C7.236 24.9128 7.61692 24.7092 8.03162 24.6267C8.44632 24.5442 8.87617 24.5865 9.2668 24.7484C9.65744 24.9102 9.99132 25.1842 10.2262 25.5357C10.4611 25.8873 10.5865 26.3006 10.5865 26.7234C10.5865 27.2904 10.3613 27.8342 9.96036 28.2351C9.55944 28.636 9.01568 28.8613 8.44869 28.8613ZM18.7616 25.5605H12.1258C11.8767 24.7808 11.3863 24.1005 10.7254 23.6177C10.0644 23.135 9.26716 22.8748 8.44869 22.8748C7.63022 22.8748 6.83294 23.135 6.17199 23.6177C5.51105 24.1005 5.02065 24.7808 4.77163 25.5605H2.56539C2.3386 25.5605 2.12109 25.4704 1.96072 25.31C1.80036 25.1496 1.71026 24.9321 1.71026 24.7053V7.70534C1.71026 7.02496 1.98054 6.37244 2.46165 5.89133C2.94275 5.41023 3.59527 5.13995 4.27565 5.13995H16.1962C16.8766 5.13995 17.5291 5.41023 18.0102 5.89133C18.4913 6.37244 18.7616 7.02496 18.7616 7.70534V25.5605ZM25.5513 28.8613C25.1285 28.8613 24.7152 28.7359 24.3636 28.501C24.012 28.2661 23.738 27.9322 23.5762 27.5416C23.4144 27.1509 23.3721 26.7211 23.4546 26.3064C23.537 25.8917 23.7407 25.5108 24.0396 25.2118C24.3386 24.9128 24.7195 24.7092 25.1342 24.6267C25.5489 24.5442 25.9788 24.5865 26.3694 24.7484C26.7601 24.9102 27.0939 25.1842 27.3288 25.5357C27.5638 25.8873 27.6891 26.3006 27.6891 26.7234C27.6891 27.2904 27.4639 27.8342 27.063 28.2351C26.6621 28.636 26.1183 28.8613 25.5513 28.8613ZM32.2897 24.7053C32.2897 24.9321 32.1996 25.1496 32.0393 25.31C31.8789 25.4704 31.6614 25.5605 31.4346 25.5605H29.2284C28.9793 24.7808 28.489 24.1005 27.828 23.6177C27.1671 23.135 26.3698 22.8748 25.5513 22.8748C24.7328 22.8748 23.9356 23.135 23.2746 23.6177C22.6137 24.1005 22.1233 24.7808 21.8742 25.5605H20.4718V13.0756H27.9628C28.3708 13.0783 28.7724 13.1773 29.135 13.3645C29.4976 13.5518 29.8108 13.8219 30.0493 14.153L31.8109 16.5987C32.1187 17.0342 32.2858 17.5534 32.2897 18.0866V24.7053Z" fill="currentColor"/>
<path d="M27.3118 17.3509H23.8913C23.6645 17.3509 23.447 17.2608 23.2866 17.1004C23.1262 16.9401 23.0361 16.7226 23.0361 16.4958C23.0361 16.269 23.1262 16.0515 23.2866 15.8911C23.447 15.7307 23.6645 15.6406 23.8913 15.6406H27.3118C27.5386 15.6406 27.7561 15.7307 27.9165 15.8911C28.0768 16.0515 28.1669 16.269 28.1669 16.4958C28.1669 16.7226 28.0768 16.9401 27.9165 17.1004C27.7561 17.2608 27.5386 17.3509 27.3118 17.3509Z" fill="currentColor"/>
</svg>
