<svg width="16" height="16" viewBox="0 0 16 16" fill="none" xmlns="http://www.w3.org/2000/svg">
<path d="M4.75 13C5.7165 13 6.5 12.2165 6.5 11.25C6.5 10.2835 5.7165 9.5 4.75 9.5C3.7835 9.5 3 10.2835 3 11.25C3 12.2165 3.7835 13 4.75 13Z" stroke="currentColor" stroke-linecap="round" stroke-linejoin="round"/>
<path d="M11.25 13C12.2165 13 13 12.2165 13 11.25C13 10.2835 12.2165 9.5 11.25 9.5C10.2835 9.5 9.5 10.2835 9.5 11.25C9.5 12.2165 10.2835 13 11.25 13Z" stroke="currentColor" stroke-linecap="round" stroke-linejoin="round"/>
<path d="M6.5 11.25H9.5" stroke="currentColor" stroke-linecap="round" stroke-linejoin="round"/>
<path d="M0.5 7.5L15.5 7.5" stroke="currentColor" stroke-linecap="round" stroke-linejoin="round"/>
<path d="M2.5 7.4991L5.58125 3.0991C5.62767 3.03241 5.68965 2.97805 5.76181 2.9407C5.83397 2.90336 5.91415 2.88416 5.9954 2.88478C6.07665 2.8854 6.15652 2.9058 6.22811 2.94424C6.2997 2.98267 6.36084 3.03797 6.40625 3.10535L7.58125 4.8741C7.62669 4.94374 7.68877 5.00095 7.76189 5.04055C7.83501 5.08014 7.91685 5.10088 8 5.10088C8.08315 5.10088 8.16499 5.08014 8.23811 5.04055C8.31123 5.00095 8.37331 4.94374 8.41875 4.8741L9.59375 3.10535C9.63916 3.03797 9.7003 2.98267 9.77189 2.94424C9.84348 2.9058 9.92335 2.8854 10.0046 2.88478C10.0859 2.88416 10.166 2.90336 10.2382 2.9407C10.3104 2.97805 10.3723 3.03241 10.4187 3.0991L13.5 7.4991" stroke="currentColor" stroke-linecap="round" stroke-linejoin="round"/>
</svg>
