<svg viewBox="0 0 16 16" fill="none" xmlns="http://www.w3.org/2000/svg">
<path d="M2.5 15C2.225 15 2 14.775 2 14.5V2.12812C2 1.8625 2.14375 1.6125 2.37188 1.48125C2.75 1.2625 3.50937 1 5 1C6.1625 1 7.4625 1.45938 8.6125 1.86563C9.53438 2.19062 10.4094 2.5 11 2.5C11.7656 2.49688 12.5125 2.34687 13.2188 2.04688C13.3594 1.9875 13.5125 1.9875 13.6531 2.04375C13.7906 2.1 13.9 2.20937 13.9594 2.34687C13.9875 2.41562 14.0031 2.49062 14.0031 2.56562V9.41875C14.0031 9.66875 13.8562 9.89062 13.6281 9.99063C13.3562 10.1094 12.3625 10.5 11.0031 10.5C10.25 10.5 9.30313 10.2781 8.30313 10.0406C7.17813 9.775 6.01562 9.5 5.00313 9.5C3.85 9.5 3.2625 9.675 3.00312 9.78438V14.5C3 14.775 2.775 15 2.5 15ZM5 8.5C6.13125 8.5 7.40625 8.8 8.53125 9.06563C9.47188 9.2875 10.3625 9.5 11 9.5C11.9187 9.5 12.6281 9.3 13 9.16562V3.19062C12.3562 3.39375 11.6844 3.49688 11 3.5C10.2344 3.5 9.28437 3.1625 8.275 2.80938C7.15312 2.40938 5.99062 2 5 2C3.84063 2 3.25312 2.175 3 2.28437V8.72812C3.4375 8.60312 4.07812 8.5 5 8.5Z" fill="currentColor"/>
</svg>
