<svg width="28" height="17" viewBox="0 0 28 17" fill="none" xmlns="http://www.w3.org/2000/svg">
<path d="M26.3979 13.2137C26.1898 10.3783 25.1652 7.94882 23.3434 5.81773C22.8362 6.32038 22.351 6.80111 21.8664 7.28249C21.684 7.46422 21.5094 7.65497 21.3219 7.83089C20.9629 8.16663 20.488 8.16599 20.1703 7.83927C19.8635 7.52286 19.8668 7.05823 20.2006 6.71218C20.7677 6.12533 21.3414 5.54536 21.9218 4.97225C22.0114 4.88332 22.1396 4.8337 22.2807 4.74606C20.0704 2.83859 17.6364 1.82298 14.8216 1.60195C14.8119 1.74436 14.7978 1.85972 14.7971 1.96798C14.7971 2.87016 14.8003 3.77235 14.7971 4.67453C14.7939 5.12563 14.618 5.40144 14.2874 5.52194C13.7577 5.71527 13.237 5.36277 13.2235 4.76282C13.2022 3.86063 13.2157 2.95845 13.2151 2.05626C13.2151 1.919 13.2151 1.78238 13.2151 1.6013C10.3751 1.81589 7.93858 2.83408 5.85003 4.63587C6.5054 5.31122 7.14595 5.96015 7.77039 6.62454C7.91925 6.78242 8.0636 6.97768 8.12095 7.18132C8.21891 7.52608 8.03589 7.8586 7.7343 8.01906C7.41209 8.18983 7.077 8.14795 6.78765 7.87213C6.19221 7.29989 5.60644 6.71669 5.02646 6.13092C4.92206 6.02523 4.85376 5.88475 4.74614 5.72751C2.82899 7.93593 1.81984 10.3783 1.60073 13.2137H2.01832C3.33937 13.2137 4.66043 13.2176 5.98084 13.2137C6.32496 13.2137 6.5924 13.3323 6.7593 13.6313C6.81767 13.7407 6.84931 13.8623 6.85162 13.9862C6.85393 14.1102 6.82685 14.2329 6.77259 14.3444C6.71834 14.4559 6.63845 14.5529 6.53948 14.6275C6.4405 14.7022 6.32525 14.7523 6.20317 14.7739C6.10756 14.7873 6.01098 14.7927 5.91447 14.79C4.25015 14.79 2.58562 14.79 0.920873 14.79C0.276455 14.788 0 14.5025 0 13.8652C0.00515534 7.16714 5.01486 1.27329 11.6169 0.196472C17.5456 -0.770154 23.1746 1.8784 26.1769 7.07435C27.3767 9.13808 28.0059 11.4839 28 13.871C28 14.4967 27.7235 14.7861 27.1055 14.7874C25.4197 14.7912 23.7337 14.7912 22.0475 14.7874C21.4958 14.7874 21.153 14.4755 21.1543 13.9947C21.1556 13.514 21.5029 13.2176 22.0597 13.2163C23.3597 13.2137 24.6593 13.2137 25.9584 13.2163L26.3979 13.2137Z" fill="currentColor"/>
<path d="M14.2699 16.5222C12.8297 16.517 11.8089 15.7637 11.5679 14.6244C11.3378 13.5353 11.1928 12.4269 11.0485 11.3224C10.9041 10.2178 10.8113 9.12618 10.6934 8.02745C10.6483 7.60406 10.8184 7.27477 11.1632 7.12977C11.328 7.0583 11.5122 7.04534 11.6854 7.09305C11.8585 7.14077 12.0101 7.24627 12.115 7.39205C13.3942 9.03403 14.674 10.6747 15.9325 12.3322C16.8676 13.5636 16.5815 14.8293 15.9731 15.5768C15.4595 16.207 14.7926 16.5189 14.2699 16.5222ZM12.6795 10.5716L12.5216 10.6315C12.7182 11.8559 12.8883 13.0842 13.1248 14.3002C13.2279 14.8299 13.8736 15.078 14.3692 14.8628C14.8647 14.6476 15.1257 14.0296 14.8203 13.574C14.1359 12.5493 13.3961 11.5666 12.6795 10.5716Z" fill="currentColor"/>
</svg>
