<svg viewBox="0 0 69 35" fill="none" xmlns="http://www.w3.org/2000/svg">
<path d="M26.1119 0.405703L17.1338 21.8252H11.2756L6.8597 4.73023C6.58954 3.67805 6.35798 3.29211 5.54142 2.8493C4.21095 2.12617 2.0111 1.44773 0.0753174 1.02727L0.207354 0.405703H9.6364C10.8389 0.405703 11.9195 1.20398 12.1917 2.5893L14.5256 14.986L20.2883 0.405703H26.1119ZM49.065 14.8337C49.0874 9.1807 41.2447 8.86789 41.3016 6.34305C41.3158 5.5732 42.0511 4.75664 43.6497 4.54742C44.4459 4.44383 46.6316 4.36258 49.1158 5.50617L50.0867 0.964297C48.7542 0.478828 47.0378 0.0136719 44.903 0.0136719C39.4267 0.0136719 35.5714 2.92648 35.5389 7.09664C35.5044 10.178 38.2913 11.8985 40.3916 12.9263C42.5508 13.9745 43.2739 14.6488 43.2658 15.5873C43.2516 17.0254 41.5433 17.6571 39.9508 17.6835C37.1639 17.7282 35.547 16.932 34.2572 16.3307L33.2537 21.0249C34.5477 21.6201 36.9364 22.136 39.4186 22.1624C45.2361 22.1624 49.0447 19.2841 49.065 14.8337ZM63.5275 21.8273H68.6524L64.1795 0.405703H59.4467C58.3844 0.405703 57.4866 1.02523 57.0885 1.97789L48.7766 21.8273H54.592L55.7478 18.6301H62.8572L63.5275 21.8273ZM57.3444 14.2365L60.2613 6.1907L61.9391 14.2365H57.3444ZM34.0297 0.405703L29.4472 21.8252H23.9059L28.4884 0.405703H34.0297Z" fill="white"/>
<path d="M29.9857 34.5377V27.7168H32.2384C32.9676 27.7168 33.5485 27.8915 33.9792 28.2368C34.4098 28.5841 34.6251 29.1062 34.6251 29.807C34.6251 30.5138 34.4098 31.0379 33.9792 31.3812C33.5485 31.7245 32.9676 31.8991 32.2384 31.8991H30.8652V34.5377H29.9857ZM32.1124 28.4257H30.8652V31.2166H32.1124C32.6263 31.2166 33.0224 31.111 33.2967 30.8977C33.5729 30.6865 33.709 30.3249 33.709 29.8171C33.709 29.3134 33.5709 28.9579 33.2967 28.7446C33.0224 28.5313 32.6263 28.4257 32.1124 28.4257Z" fill="white"/>
<path d="M36.6175 27.4473V34.5363H35.8192V27.4473H36.6175Z" fill="white"/>
<path d="M38.1247 30.589L38.214 29.807C38.405 29.6749 38.6447 29.5652 38.9311 29.4759C39.2175 29.3865 39.5323 29.3418 39.8736 29.3418C40.5256 29.3418 41.0111 29.4698 41.3279 29.7277C41.6448 29.9837 41.8033 30.4102 41.8033 31.0013V34.5377H41.0395V33.5688H41.0029C40.8709 33.9466 40.6678 34.2229 40.3936 34.3996C40.1173 34.5763 39.7741 34.6637 39.3617 34.6637C39.0814 34.6637 38.8214 34.6109 38.5858 34.5073C38.3501 34.4016 38.1592 34.2452 38.017 34.032C37.8728 33.8187 37.8017 33.5485 37.8017 33.2195C37.8017 32.8924 37.8708 32.6263 38.0089 32.4252C38.145 32.2241 38.3379 32.0718 38.5878 31.9641C38.8376 31.8565 39.1342 31.7732 39.4815 31.7123C39.9061 31.6412 40.2433 31.5741 40.4911 31.5152C40.7389 31.4563 40.9176 31.3751 41.0253 31.2735V31.0399C41.0253 30.6702 40.94 30.4001 40.7694 30.2315C40.5987 30.0649 40.2798 29.9816 39.8126 29.9816C39.514 29.9816 39.2195 30.0324 38.9291 30.134C38.6386 30.2355 38.3766 30.3879 38.145 30.591H38.1247V30.589ZM41.0131 32.8315V31.7813C40.9176 31.8646 40.7491 31.9398 40.5053 32.0007C40.2616 32.0616 39.9629 32.1287 39.6034 32.1937C39.2987 32.2404 39.0529 32.3318 38.864 32.4638C38.6751 32.5959 38.5817 32.8295 38.5817 33.1646C38.5817 33.4693 38.669 33.6948 38.8458 33.841C39.0225 33.9893 39.2662 34.0604 39.577 34.0604C39.8756 34.0604 40.1336 33.9974 40.3489 33.8735C40.5642 33.7476 40.7287 33.5912 40.8425 33.4023C40.9562 33.2134 41.0131 33.0224 41.0131 32.8315Z" fill="white"/>
<path d="M44.379 33.1724C44.379 33.4974 44.4481 33.7127 44.5862 33.8224C44.7223 33.9341 44.9031 33.989 45.1245 33.989C45.3276 33.989 45.5044 33.9707 45.6547 33.9341C45.8029 33.8976 45.9268 33.857 46.0223 33.8082H46.0487L45.9776 34.4826C45.8883 34.5293 45.7522 34.572 45.5734 34.6085C45.3947 34.6451 45.2119 34.6634 45.025 34.6634C44.5761 34.6634 44.2226 34.5577 43.9667 34.3445C43.7087 34.1312 43.5808 33.7838 43.5808 33.2984V30.1316H42.6484L42.7561 29.6015L43.5808 29.4837V28.399L44.379 28.2832V29.4674H45.9309L45.8314 30.1316H44.377V33.1724H44.379Z" fill="white"/>
<path d="M46.8734 28.2285C46.8734 28.0965 46.9201 27.9888 47.0115 27.9015C47.1049 27.8141 47.2227 27.7715 47.3669 27.7715C47.5112 27.7715 47.629 27.8162 47.7265 27.9015C47.8219 27.9888 47.8707 28.0985 47.8707 28.2285C47.8707 28.3666 47.824 28.4784 47.7265 28.5657C47.631 28.653 47.5112 28.6957 47.3669 28.6957C47.2227 28.6957 47.1049 28.651 47.0115 28.5657C46.9201 28.4784 46.8734 28.3666 46.8734 28.2285ZM47.7712 29.4655V34.5355H46.9729V29.4655H47.7712Z" fill="white"/>
<path d="M51.8904 29.3418C52.4409 29.3418 52.8715 29.482 53.1823 29.7643C53.4931 30.0446 53.6495 30.4854 53.6495 31.0826V34.5377H52.8594V31.308C52.8594 30.8815 52.768 30.5646 52.5851 30.3513C52.4023 30.1401 52.0712 30.0324 51.5939 30.0324C51.3136 30.0324 51.0576 30.0893 50.8261 30.203C50.5965 30.3168 50.4137 30.4793 50.2797 30.6885C50.1456 30.8977 50.0766 31.1455 50.0766 31.434V34.5377H49.2783V29.4677H50.042V30.5443H50.0867C50.1822 30.2579 50.3284 30.0263 50.5214 29.8496C50.7164 29.6729 50.9337 29.5449 51.1754 29.4637C51.4192 29.3824 51.6569 29.3418 51.8904 29.3418Z" fill="white"/>
<path d="M57.1475 33.9722C57.4237 33.9722 57.6756 33.9153 57.9051 33.8016C58.1346 33.6898 58.3195 33.5253 58.4576 33.3161C58.5937 33.1069 58.6628 32.8611 58.6628 32.5808V29.4669H59.461V34.5369H58.6993V33.4684H58.6628C58.5612 33.7548 58.415 33.9884 58.224 34.1652C58.0331 34.3419 57.8178 34.4678 57.5781 34.545C57.3384 34.6222 57.1028 34.6608 56.8692 34.6608C56.3187 34.6608 55.8861 34.5186 55.5672 34.2302C55.2503 33.9438 55.0918 33.5009 55.0918 32.9017V29.4648H55.8901V32.723C55.8901 33.1536 55.9795 33.4684 56.1603 33.6695C56.341 33.8727 56.6701 33.9722 57.1475 33.9722Z" fill="white"/>
<path d="M65.1447 30.5626H65.1813C65.2767 30.268 65.4209 30.0345 65.6119 29.8577C65.8028 29.681 66.0161 29.551 66.2538 29.4677C66.4894 29.3845 66.725 29.3418 66.9586 29.3418C67.503 29.3418 67.9214 29.488 68.2139 29.7805C68.5064 30.073 68.6527 30.5159 68.6527 31.109V34.5377H67.8544V31.2715C67.8544 30.8409 67.7752 30.526 67.6167 30.329C67.4583 30.132 67.1394 30.0345 66.66 30.0345C66.2477 30.0345 65.9023 30.1523 65.6241 30.3879C65.3458 30.6235 65.2056 30.9668 65.2056 31.4157V34.5377H64.4073V31.2715C64.4073 30.8409 64.3261 30.526 64.1636 30.329C64.0011 30.132 63.6822 30.0345 63.2049 30.0345C62.9347 30.0345 62.6889 30.0893 62.4695 30.199C62.2481 30.3107 62.0734 30.4712 61.9434 30.6804C61.8155 30.8896 61.7505 31.1354 61.7505 31.4157V34.5377H60.9522V29.4677H61.7159V30.5626H61.7606C61.8561 30.268 61.9963 30.0345 62.1831 29.8577C62.368 29.681 62.5772 29.551 62.8067 29.4677C63.0362 29.3845 63.2678 29.3418 63.5014 29.3418C63.9564 29.3418 64.322 29.4413 64.6003 29.6424C64.8806 29.8415 65.0614 30.1482 65.1447 30.5626Z" fill="white"/>
</svg>
